<?xml version="1.0" encoding="UTF-8"?>
<svg id="svg2" xmlns="http://www.w3.org/2000/svg" version="1.1" viewBox="0 0 242 362">
  <defs>
    <style>
      .cls-1 {
        fill: #f8da27;
      }

      .cls-1, .cls-2, .cls-3, .cls-4, .cls-5, .cls-6, .cls-7 {
        stroke-width: 0px;
      }

      .cls-1, .cls-2, .cls-4, .cls-6, .cls-7 {
        fill-rule: evenodd;
      }

      .cls-8 {
        stroke: #000;
        stroke-width: 2px;
      }

      .cls-8, .cls-4, .cls-5 {
        fill: #fff;
      }

      .cls-2 {
        fill: #58585a;
      }

      .cls-3, .cls-6 {
        fill: #000;
      }

      .cls-9 {
        fill: none;
        stroke: #fff;
        stroke-width: 4px;
      }

      .cls-7 {
        fill: #ed1c24;
      }
    </style>
  </defs>
  <g id="g9888">
    <rect id="rect2987-8-5-81-2" class="cls-8" x="1" y="1" width="240" height="360" rx="40" ry="40"/>
    <rect id="rect3757-26-33-5-9" class="cls-3" x="21" y="21" width="200" height="320" rx="20" ry="20"/>
    <path id="path3773-0-4-8-4-60-3-86-5" class="cls-5" d="M181,81c-88.366,0-160,71.634-160,160,0,22.091,17.909,40,40,40,88.366,0,160-71.634,160-160,0-22.091-17.909-40-40-40Z"/>
    <path id="path3773-0-4-8-8-7-9-0-03-8" class="cls-9" d="M181,81c-88.313.127-159.873,71.687-160,160,0,22.091,17.909,40,40,40,65.171-.03,123.811-39.585,148.25-100,7.752-19.054,11.742-39.429,11.75-60,0-22.091-17.909-40-40-40Z"/>
  </g>
  <g>
    <path class="cls-7" d="M91.436,139.184c16.136-14.62,35.686-21.752,53.07-22.071,39.609-.63,49.665,26.722,37.112,60.747-5.734,15.594-15.974,31.758-30.176,43.895-23.329,19.952-48.659,27.123-68.002,21.2-19.432-5.901-27.781-22.011-26.411-41.72,1.368-20.468,13.661-44.271,34.407-62.051h0Z"/>
    <path class="cls-5" d="M155.569,145.824c.182,1.093.453,2.163.902,3.189.472,1.114,1.056,2.295,1.795,3.342,1.053,1.537,2.329,2.827,3.626,3.828,1.185.934,2.482,1.555,3.911,1.952,1.674.241,3.192.236,4.329-.147.981-.248,1.627-.697,2.049-1.278.266-.447.399-1.05.307-1.786-.07-1.026-.564-2.23-1.238-3.768-.202-.423-.382-.758-.584-1.181-.18-.334-.471-.735-.65-1.069-1.322-1.848-2.867-3.451-4.566-4.539-1.476-.955-3.129-1.486-4.758-1.548-1.718-.04-3.056.299-3.947.904-.557.426-.979,1.007-1.066,1.788l-.111.313ZM148.489,120.85c7.194-4.953,15.201-6.316,22.726-4.709,7.815,1.628,15.038,6.539,19.991,13.733,2.824,4.031,4.622,8.511,5.461,12.95.861,4.528.786,9.103-.384,13.48-.044.201-.066.491-.243.916-.088.402-.199.715-.243.916-1.879,6.076-4.208,10.746-6.809,14.347-2.69,3.623-5.538,6.243-8.523,8.327-7.349,5.087-15.535,6.495-23.15,4.911-8.016-1.672-15.306-6.471-20.281-13.754-2.712-3.964-4.621-8.132-5.504-12.369-.905-4.327-.963-8.678-.061-12.988.705-3.216,2.099-7.08,4.252-10.947,1.887-3.42,4.331-6.886,7.223-10.086.734-.85,1.58-1.634,2.425-2.417,1.202-.874,2.137-1.68,3.117-2.308h0Z"/>
    <path class="cls-5" d="M115.085,144.872l12.271-8.516c1.136-.762,2.632-.476,3.394.66.023.089.112.067.134.156l32.295,46.59c.246.222.426.557.516.913.27.691.183,1.472-.239,2.054l-4.73,7.936c-.2.335-.422.581-.757.761l-10.111,6.925c-.646.448-1.471.562-2.208.274l-14.699-5.201,4.011,5.723c.269.312.56.712.673,1.158.158.624.049,1.316-.307,1.786l-4.73,7.936c-.2.335-.422.581-.667.738l-12.36,8.539c-1.136.762-2.632.476-3.394-.66l-32.609-47.08c-.605-.891-.609-2.029.036-2.857l4.597-7.713c.2-.335.422-.581.757-.761l10.757-7.374c.646-.448,1.471-.562,2.208-.274l13.515,4.647-3.586-5.167c-.583-.802-.563-1.851-.097-2.633l4.641-7.914c.222-.246.445-.492.69-.649h0Z"/>
    <path class="cls-5" d="M90.443,241.752c-5.216,1.89-10.103,2.083-14.727.691-6.254-1.834-11.69-6.437-16.284-12.962l-17.974-26.012c-.605-.891-.609-2.029.036-2.857l4.597-7.713c.2-.335.422-.581.667-.738l12.36-8.539c1.136-.762,2.632-.476,3.394.66l18.4,26.569c1.053,1.537,2.352,2.917,3.871,3.671,1.095.577,2.39.819,3.84.547l.892-.226c-.135-.535-.36-1.048-.585-1.56-.382-.758-.763-1.515-1.346-2.317l-18.4-26.569c-.605-.891-.609-2.029.036-2.857l4.464-7.489c.177-.425.466-.782.867-1.074l12.36-8.539c1.136-.762,2.632-.476,3.394.66l18.243,26.324c2.824,4.031,4.71,8.109,5.637,12.146s.983,8.009-.032,11.872c-.839,3.06-2.993,6.547-5.148,10.035-.466.782-1.022,1.587-1.422,2.258l-.067.112c-.777,1.431-1.755,2.817-2.867,4.048-3.736,4.363-8.658,7.791-14.209,9.861h0Z"/>
    <polygon class="cls-6" points="146.491 200.324 124.71 192.644 133.137 204.938 133.137 204.938 133.226 204.916 128.474 212.763 116.136 221.391 83.528 174.31 88.258 166.374 99.104 158.978 119.588 166.036 111.812 154.812 116.452 146.898 128.724 138.382 161.421 185.44 156.691 193.376 146.491 200.324"/>
    <path class="cls-6" d="M149.945,122.855c13.496-9.301,30.336-4.642,39.323,8.364,5.222,7.505,6.855,16.583,4.803,24.601-.066.491-.22,1.005-.375,1.519-3.581,11.726-8.853,17.522-14.42,21.399-13.897,9.592-30.961,4.8-40.037-8.184-5.11-7.439-6.874-15.534-5.179-23.461,1.211-5.716,5.026-13.516,10.899-19.938,1.401-1.589,3.115-3.066,4.986-4.299ZM153.137,145.965c-.023-.089.044-.201.021-.29.168-3.459,3.131-5.254,7.416-5.199,4.374.032,8.467,3.077,11.291,7.108.583.802,1.076,1.626,1.503,2.562,1.729,3.454,2.026,6.131.871,7.942-1.355,2.146-4.633,3.071-8.785,2.414-3.551-.905-6.75-3.417-9.125-6.802-1.748-2.405-2.804-5.08-3.192-7.734h0Z"/>
    <polygon class="cls-6" points="116.014 180.039 133.137 204.938 120.777 213.477 88.258 166.374 99.104 158.978 132.88 170.55 116.452 146.898 128.724 138.382 161.421 185.44 151.221 192.388 116.014 180.039"/>
    <polygon class="cls-4" points="111.206 176.416 130.636 204.432 121.26 210.887 90.848 166.857 99.333 161.008 137.599 174.196 119.043 147.382 128.24 140.972 158.831 184.957 150.903 190.38 111.206 176.416"/>
    <polygon class="cls-1" points="120.829 147.689 127.933 142.758 156.956 184.672 150.72 188.908 107.895 173.837 128.85 204.125 121.657 209.078 92.656 167.254 99.516 162.48 140.887 176.685 120.829 147.689"/>
    <path class="cls-6" d="M149.945,122.855c13.496-9.301,30.336-4.642,39.323,8.364s7.432,30.484-5.975,39.763c-13.496,9.301-30.336,4.642-39.323-8.364-9.099-13.073-7.521-30.462,5.975-39.763ZM158.17,134.725c-6.793,4.662-6.189,12.671-1.841,18.974,4.325,6.213,11.543,9.607,18.425,4.922,6.77-4.751,6.189-12.671,1.841-18.974-4.414-6.191-11.633-9.584-18.425-4.922Z"/>
    <path class="cls-4" d="M150.999,124.391c12.605-8.696,28.329-4.323,36.845,7.948,8.404,12.204,7.024,28.499-5.559,37.284-12.605,8.696-28.351,4.234-36.845-7.948-8.427-12.294-7.136-28.566,5.559-37.284ZM157.117,133.188c-7.684,5.267-7.255,14.46-2.324,21.564,4.93,7.104,13.243,10.695,21.015,5.406,7.661-5.356,7.255-14.46,2.347-21.475-5.02-7.082-13.354-10.762-21.038-5.495Z"/>
    <path class="cls-1" d="M156.377,132.142c7.995-5.536,17.177-2.26,22.712,5.735s5.341,17.726-2.654,23.261-17.266,2.282-22.802-5.713c-5.513-7.906-5.252-17.748,2.743-23.284ZM151.738,125.438c11.781-8.202,26.811-4.319,35.036,7.551,8.225,11.87,6.53,27.296-5.185,35.386-11.804,8.113-26.811,4.319-35.036-7.551-8.314-11.848-6.708-27.251,5.185-35.386Z"/>
    <path class="cls-6" d="M88.452,239.883c-10.546,3.334-19.866-1.615-26.926-11.882l-17.974-26.012,4.641-7.914,12.36-8.539,18.4,26.569c2.375,3.385,5.798,6.031,10.213,5.103,1.271-.227,2.921-.834,2.871-2.53-.385-1.896-1.216-3.679-2.381-5.282l-18.4-26.569,4.73-7.936,12.271-8.516,18.243,26.324c5.244,7.594,7.141,15.087,5.287,22.01-.883,3.261-3.861,7.621-6.259,11.645-3.596,6.415-10.209,11.411-17.077,13.529h0Z"/>
    <path class="cls-6" d="M103.965,225.8l.134.156-2.583,1.793c-.089.023-.156.134-.156.134-.089.023-.156.134-.245.157l-2.583,1.793-.134-.156c-12.744,7.022-23.916,2.257-32.141-9.613l-17.974-26.012,12.36-8.539,18.4,26.569c2.375,3.385,5.798,6.031,10.213,5.103,1.271-.227,2.542-.833,3.588-1.573,1.136-.762,2.115-1.769,2.781-2.887,2.377-3.734,1.137-7.881-1.238-11.266l-18.489-26.546,12.36-8.539,18.243,26.324c8.248,11.959,8.662,23.719-2.536,33.102h0Z"/>
    <path class="cls-4" d="M101.42,225.495l-1.047.74c-.089.023-.156.134-.245.157s-.156.134-.245.157l-1.047.74c-12.474,7.713-23.132,3.482-31.11-8.165l-16.921-24.476,9.287-6.432,17.346,25.032c2.824,4.031,6.983,6.964,12.113,5.856,1.539-.295,2.988-.946,4.279-1.843s2.516-2.06,3.315-3.402c2.777-4.404,1.535-9.31-1.289-13.341l-17.346-25.032,9.287-6.432,17.189,24.787c8.068,11.625,8.123,22.716-3.567,31.655h0Z"/>
    <path class="cls-1" d="M52.591,194.954l7.194-4.953,16.607,23.986c5.513,7.906,12.922,7.929,18.178,4.32,5.233-3.698,7.936-10.646,2.333-18.529l-16.607-23.986,7.194-4.953,16.45,23.741c6.566,9.443,9.456,20.86-4.284,30.697-.089.023-.156.134-.245.157s-.156.134-.245.157c-13.631,9.145-23.737,2.592-30.46-7.096l-16.115-23.541Z"/>
    <path class="cls-2" d="M113.954,154.649l3.641-6.237,4.639,6.703-3.641,6.237-4.639-6.703ZM120.117,163.625l3.641-6.237,1.77,2.494-3.641,6.237-1.77-2.494Z"/>
    <path class="cls-2" d="M73.421,182.753l3.641-6.237,4.639,6.703-3.641,6.237-4.639-6.703ZM79.584,191.728l3.641-6.237,1.77,2.494-3.641,6.237-1.77-2.494Z"/>
    <path class="cls-2" d="M56.093,217.037l3.641-6.237,4.639,6.703-3.641,6.237-4.639-6.703ZM62.346,225.99l3.641-6.237.269.312c.56.712,1.031,1.448,1.591,2.16l-3.731,6.259-1.77-2.494Z"/>
    <path class="cls-2" d="M165.929,139.879l3.731-6.259c2.145.976,4.181,2.643,5.838,4.692l-3.664,6.148c-1.612-1.87-3.648-3.538-5.905-4.58ZM173.514,146.597l3.575-6.125c.628.98,1.054,1.916,1.504,2.941l-3.531,5.924-.023-.089c-.404-.847-.92-1.76-1.525-2.651h0Z"/>
  </g>
</svg>