<svg width="238" height="332" xmlns="http://www.w3.org/2000/svg">
 <!-- Created with Method Draw - http://github.com/duopixel/Method-Draw/ -->

 <g>
  <title>background</title>
  <rect x="-1" y="-1" width="240" height="334" id="canvas_background" fill="#fff"/>
  <g id="canvasGrid" display="none">
   <rect id="svg_3" width="100%" height="100%" x="0" y="0" stroke-width="0" fill="url(#gridpattern)"/>
  </g>
 </g>
 <g>
  <title>Layer 1</title>
  <rect stroke="#0158a8" fill="#0158a8" stroke-width="15" x="6.99999" y="7" width="224.00003" height="317.99998" id="svg_1" rx="17"/>
  <ellipse fill="#014c8e" stroke-width="5" cx="119" cy="166" id="svg_12" rx="78.5" ry="103" stroke="#ffffff"/>
  <rect fill="#ffffff" stroke="#000" stroke-width="20" stroke-opacity="null" x="-294.16498" y="-51.21875" width="267" height="137" id="svg_2"/>
  <text fill="#ffffff" stroke="#02a962" stroke-width="0" x="-33.16498" y="200.78125" id="svg_9" font-size="39" font-family="Arvo, sans-serif" text-anchor="start" xml:space="preserve">6</text>
  <path id="svg_6" d="m87.5,122.78125" opacity="0.5" fill-opacity="null" stroke-opacity="null" stroke-width="1.5" stroke="#000" fill="#fff"/>
  <path id="svg_7" d="m63.5,165.9999l0,0c0,-30.65166 24.84822,-55.49989 55.49995,-55.49989l0,0c14.71971,0 28.83649,5.84731 39.24444,16.2556c10.40836,10.40829 16.25562,24.52499 16.25562,39.24429l0,0c0,30.65203 -24.84805,55.5001 -55.50006,55.5001l0,0c-30.65172,0 -55.49995,-24.84807 -55.49995,-55.5001l0,0zm89.61987,24.82789l0,0c12.21927,-16.79299 10.4029,-39.98026 -4.28233,-54.66529c-14.68524,-14.68516 -37.87249,-16.50153 -54.66505,-4.28213l58.94738,58.94742zm-68.23952,-49.65527c-12.21935,16.7929 -10.40303,39.98017 4.28212,54.66499c14.68511,14.68525 37.87237,16.5016 54.66492,4.28234l-58.94705,-58.94733l0,0z" fill-opacity="null" stroke-width="1.5" stroke="#ffffff" fill="#fff"/>
  <path id="svg_8" d="m63.5,165.9999l0,0c0,-30.65166 24.84822,-55.4999 55.49995,-55.4999l0,0c14.7197,0 28.83649,5.84732 39.24443,16.25561c10.40836,10.40829 16.25562,24.52499 16.25562,39.24429l0,0c0,30.65203 -24.84804,55.5001 -55.50005,55.5001l0,0c-30.65173,0 -55.49995,-24.84807 -55.49995,-55.5001l0,0zm89.61987,24.82789l0,0c12.21927,-16.79299 10.4029,-39.98026 -4.28233,-54.6653c-14.68524,-14.68515 -37.87249,-16.50152 -54.66505,-4.28212l58.94738,58.94742zm-68.23952,-49.65527c-12.21935,16.7929 -10.40303,39.98017 4.28212,54.66499c14.68511,14.68525 37.87237,16.5016 54.66492,4.28234l-58.94704,-58.94733l0,0z" fill-opacity="null" stroke-width="1.5" stroke="#ffffff" fill="#fff"/>
  <path id="svg_10" d="m63.5,165.9999l0,0c0,-30.65166 24.84822,-55.4999 55.49995,-55.4999l0,0c14.7197,0 28.83649,5.84732 39.24443,16.25561c10.40836,10.40829 16.25562,24.52499 16.25562,39.24429l0,0c0,30.65203 -24.84804,55.5001 -55.50005,55.5001l0,0c-30.65173,0 -55.49995,-24.84807 -55.49995,-55.5001l0,0zm89.61987,24.82789l0,0c12.21927,-16.79299 10.4029,-39.98026 -4.28233,-54.6653c-14.68524,-14.68515 -37.87249,-16.50152 -54.66505,-4.28212l58.94738,58.94742zm-68.23952,-49.65527c-12.21935,16.7929 -10.40303,39.98017 4.28212,54.66499c14.68511,14.68525 37.87237,16.5016 54.66492,4.28234l-58.94704,-58.94733l0,0z" fill-opacity="null" stroke-width="1.5" stroke="#ffffff" fill="#fff"/>
  <path stroke="#ffffff" id="svg_11" d="m195.5,27.99997l0,0c0,-9.11266 7.38731,-16.49997 16.49999,-16.49997l0,0c4.37613,0 8.57301,1.73839 11.66726,4.83275c3.09438,3.09436 4.83275,7.29121 4.83275,11.66722l0,0c0,9.11277 -7.38726,16.50003 -16.50002,16.50003l0,0c-9.11268,0 -16.49999,-7.38726 -16.49999,-16.50003l0,0zm26.64375,7.38126l0,0c3.63276,-4.99251 3.09275,-11.88602 -1.27313,-16.25185c-4.36588,-4.36586 -11.25939,-4.90586 -16.25177,-1.27306l17.5249,17.52491zm-20.28743,-14.76238c-3.63278,4.99248 -3.09279,11.886 1.27306,16.25175c4.36584,4.36589 11.25935,4.90588 16.25173,1.27313l-17.5248,-17.52488l0,0z" fill-opacity="null" stroke-width="1.5" fill="#fff"/>
  <path stroke="#ffffff" id="svg_13" d="m13.5,303.99997l0,0c0,-9.11266 7.38731,-16.49997 16.49999,-16.49997l0,0c4.37612,0 8.57301,1.73839 11.66726,4.83275c3.09438,3.09436 4.83275,7.29121 4.83275,11.66722l0,0c0,9.11277 -7.38725,16.50003 -16.50001,16.50003l0,0c-9.11268,0 -16.49999,-7.38726 -16.49999,-16.50003l0,0zm26.64375,7.38127l0,0c3.63275,-4.99252 3.09275,-11.88603 -1.27313,-16.25185c-4.36588,-4.36586 -11.25939,-4.90586 -16.25177,-1.27306l17.5249,17.52491zm-20.28743,-14.76238c-3.63278,4.99248 -3.09279,11.88599 1.27306,16.25175c4.36585,4.36589 11.25936,4.90588 16.25174,1.27313l-17.5248,-17.52488l0,0z" fill-opacity="null" stroke-width="1.5" fill="#fff"/>
 </g>
</svg>