<svg width="238" height="332" xmlns="http://www.w3.org/2000/svg">
 <!-- Created with Method Draw - http://github.com/duopixel/Method-Draw/ -->

 <g>
  <title>background</title>
  <rect fill="#fff" id="canvas_background" height="334" width="240" y="-1" x="-1"/>
  <g display="none" id="canvasGrid">
   <rect fill="url(#gridpattern)" stroke-width="0" y="0" x="0" height="100%" width="100%" id="svg_3"/>
  </g>
 </g>
 <g>
  <title>Layer 1</title>
  <rect stroke="#02a962" rx="17" id="svg_1" height="317.99999" width="222" y="7" x="8" stroke-width="15" fill="#02a962"/>
  <ellipse stroke="#ffffff" ry="103" rx="78.5" id="svg_12" cy="166" cx="119" stroke-width="5" fill="#16965c"/>
  <rect id="svg_2" height="137" width="267" y="-51.21875" x="-294.16498" stroke-opacity="null" stroke-width="20" stroke="#000" fill="#ffffff"/>
  <text xml:space="preserve" text-anchor="start" font-family="Arvo, sans-serif" font-size="39" id="svg_9" y="200.78125" x="-33.16498" stroke-width="0" stroke="#02a962" fill="#ffffff">6</text>
  <rect id="svg_28" height="69" width="81" y="-94.21875" x="-316.16498" stroke-opacity="null" stroke-width="5" stroke="#a81f2d" fill="#ffffff"/>
  <rect id="svg_29" height="70" width="89" y="47.78125" x="-197.16498" stroke-opacity="null" stroke-width="5" stroke="#a81f2d" fill="#ffffff"/>
  <path id="svg_5" d="m57.5,165.99989l0,0c0,-33.96533 27.53451,-61.49984 61.49994,-61.49984l0,0c16.31103,0 31.95395,6.47945 43.48707,18.01295c11.53359,11.5335 18.01299,27.17632 18.01299,43.48689l0,0c0,33.96574 -27.53432,61.50007 -61.50006,61.50007l0,0c-33.96542,0 -61.49994,-27.53432 -61.49994,-61.50007l0,0zm99.3085,27.51197l0,0c13.54027,-18.60844 11.52753,-44.30242 -4.74529,-60.57501c-16.27283,-16.27273 -41.96681,-18.28546 -60.57477,-4.74506l65.32006,65.32007zm-75.61676,-55.02337c-13.54036,18.60834 -11.52768,44.30232 4.74505,60.57468c16.27269,16.27283 41.96667,18.28555 60.57464,4.74529l-65.31969,-65.31997l0,0z" stroke-width="0" stroke="#ffffff" fill="#ffffff"/>
  <path stroke="#ffffff" id="svg_6" d="m198.5,25.00001l0,0c0,-7.4558 6.04416,-13.49996 13.49998,-13.49996l0,0c3.58047,0 7.01428,1.42232 9.54594,3.95406c2.53176,2.53174 3.95407,5.96553 3.95407,9.5459l0,0c0,7.45589 -6.04412,13.50001 -13.50001,13.50001l0,0c-7.45582,0 -13.49998,-6.04412 -13.49998,-13.50001l0,0zm21.79942,6.03921l0,0c2.97225,-4.08478 2.53043,-9.72492 -1.04165,-13.29695c-3.57208,-3.57206 -9.21222,-4.01388 -13.2969,-1.0416l14.33855,14.33855zm-16.59879,-12.0783c-2.97227,4.08475 -2.53047,9.7249 1.0416,13.29688c3.57205,3.57208 9.21219,4.0139 13.29687,1.04165l-14.33846,-14.33852l0,0z" fill="#ffffff"/>
  <path stroke="#ffffff" id="svg_7" d="m16.5,307.00001l0,0c0,-7.4558 6.04416,-13.49996 13.49998,-13.49996l0,0c3.58047,0 7.01428,1.42232 9.54594,3.95406c2.53176,2.53174 3.95407,5.96553 3.95407,9.5459l0,0c0,7.45589 -6.04412,13.50001 -13.50001,13.50001l0,0c-7.45582,0 -13.49998,-6.04412 -13.49998,-13.50001l0,0zm21.79942,6.03921l0,0c2.97225,-4.08478 2.53043,-9.72492 -1.04165,-13.29695c-3.57208,-3.57206 -9.21222,-4.01388 -13.2969,-1.0416l14.33855,14.33855zm-16.5988,-12.0783c-2.97227,4.08476 -2.53046,9.7249 1.0416,13.29688c3.57205,3.57208 9.21219,4.0139 13.29687,1.04165l-14.33847,-14.33853l0,0z" fill="#ffffff"/>
 </g>
</svg>