<svg width="238" height="332" xmlns="http://www.w3.org/2000/svg">
 <!-- Created with Method Draw - http://github.com/duopixel/Method-Draw/ -->

 <g>
  <title>background</title>
  <rect x="-1" y="-1" width="240" height="334" id="canvas_background" fill="#fff"/>
  <g id="canvasGrid" display="none">
   <rect id="svg_3" width="100%" height="100%" x="0" y="0" stroke-width="0" fill="url(#gridpattern)"/>
  </g>
 </g>
 <g>
  <title>Layer 1</title>
  <rect fill="#c42335" stroke-width="15" x="8" y="7" width="222" height="317.99999" id="svg_1" rx="17" stroke="#c42335"/>
  <ellipse fill="#a81f2d" stroke-width="5" cx="119" cy="166" id="svg_12" rx="78.5" ry="103" stroke="#ffffff"/>
  <rect fill="#ffffff" stroke="#000" stroke-width="20" stroke-opacity="null" x="-294.16498" y="-51.21875" width="267" height="137" id="svg_2"/>
  <text transform="matrix(1,0,0,1,0,0) " fill="#ffffff" stroke="#02a962" stroke-width="0" x="204.83502" y="44.78125" id="svg_8" font-size="39" font-family="Helvetica, Arial, sans-serif" text-anchor="start" xml:space="preserve">7</text>
  <text fill="#ffffff" stroke="#02a962" stroke-width="0" x="-33.16498" y="200.78125" id="svg_9" font-size="39" font-family="Arvo, sans-serif" text-anchor="start" xml:space="preserve">6</text>
  <text fill="#ffffff" stroke-width="0" x="13.83502" y="305.78125" id="svg_10" font-size="39" font-family="Helvetica, Arial, sans-serif" text-anchor="start" xml:space="preserve" transform="rotate(-180 24.6796875,292.109375) matrix(1,0,0,1,0,0) " stroke="#02a962">7</text>
  <rect fill="#ffffff" stroke="#a81f2d" stroke-width="5" stroke-opacity="null" fill-opacity="null" x="-316.16498" y="-94.21875" width="81" height="69" id="svg_28"/>
  <rect fill="#ffffff" stroke="#a81f2d" stroke-width="5" stroke-opacity="null" fill-opacity="null" x="-197.16498" y="47.78125" width="89" height="70" id="svg_29"/>
  <text fill="#ffffff" stroke-width="0" stroke-opacity="null" fill-opacity="null" x="131.83946" y="205.50782" id="svg_35" font-size="111" font-family="Helvetica, Arial, sans-serif" text-anchor="start" xml:space="preserve" transform="matrix(0.9197293616995276,0,0,1,-30.644449398923598,-1) " stroke="#a81f2d">7</text>
 </g>
</svg>