<svg width="238" height="332" xmlns="http://www.w3.org/2000/svg">
 <!-- Created with Method Draw - http://github.com/duopixel/Method-Draw/ -->

 <g>
  <title>background</title>
  <rect fill="#fff" id="canvas_background" height="334" width="240" y="-1" x="-1"/>
  <g display="none" id="canvasGrid">
   <rect fill="url(#gridpattern)" stroke-width="0" y="0" x="0" height="100%" width="100%" id="svg_3"/>
  </g>
 </g>
 <g>
  <title>Layer 1</title>
  <rect stroke="#c42335" rx="17" id="svg_1" height="317.99999" width="222" y="7" x="8" stroke-width="15" fill="#c42335"/>
  <ellipse stroke="#ffffff" ry="103" rx="78.5" id="svg_12" cy="166" cx="119" stroke-width="5" fill="#a81f2d"/>
  <rect id="svg_2" height="137" width="267" y="-51.21875" x="-294.16498" stroke-opacity="null" stroke-width="20" stroke="#000" fill="#ffffff"/>
  <text xml:space="preserve" text-anchor="start" font-family="Arvo, sans-serif" font-size="39" id="svg_9" y="200.78125" x="-33.16498" stroke-width="0" stroke="#02a962" fill="#ffffff">6</text>
  <rect id="svg_28" height="69" width="81" y="-94.21875" x="-316.16498" fill-opacity="null" stroke-opacity="null" stroke-width="5" stroke="#a81f2d" fill="#ffffff"/>
  <rect id="svg_29" height="70" width="89" y="47.78125" x="-197.16498" fill-opacity="null" stroke-opacity="null" stroke-width="5" stroke="#a81f2d" fill="#ffffff"/>
  <path id="svg_4" d="m65.15249,164.27169l0,0c0,-30.65164 24.84822,-55.49986 55.49995,-55.49986l0,0c14.71971,0 28.83649,5.84731 39.24444,16.25559c10.40836,10.40828 16.25562,24.52497 16.25562,39.24427l0,0c0,30.65201 -24.84805,55.50007 -55.50005,55.50007l0,0c-30.65172,0 -55.49995,-24.84805 -55.49995,-55.50007l0,0zm89.61987,24.82787l0,0c12.21927,-16.79298 10.4029,-39.98023 -4.28233,-54.66526c-14.68524,-14.68515 -37.87249,-16.50152 -54.66504,-4.28212l58.94738,58.94739zm-68.23952,-49.65524c-12.21935,16.79289 -10.40303,39.98015 4.28212,54.66496c14.68511,14.68524 37.87237,16.50159 54.66492,4.28233l-58.94705,-58.9473l0,0z" fill-opacity="null" stroke-opacity="null" stroke-width="1.5" stroke="#ffffff" fill="#fff"/>
  <path stroke="#ffffff" id="svg_6" d="m195.15249,24.27179l0,0c0,-8.56037 6.93959,-15.49996 15.49999,-15.49996l0,0c4.11091,0 8.05344,1.63303 10.96016,4.53985c2.90684,2.90682 4.53986,6.84932 4.53986,10.96011l0,0c0,8.56048 -6.93955,15.50002 -15.50002,15.50002l0,0c-8.56039,0 -15.49999,-6.93955 -15.49999,-15.50002l0,0zm25.02898,6.93391l0,0c3.41259,-4.68993 2.90531,-11.16565 -1.19597,-15.26688c-4.10128,-4.10126 -10.577,-4.60853 -15.26682,-1.19591l16.46278,16.46278zm-19.05788,-13.86768c-3.41261,4.68991 -2.90535,11.16563 1.19591,15.2668c4.10124,4.10128 10.57697,4.60855 15.26678,1.19597l-16.46269,-16.46276l0,0z" fill-opacity="null" stroke-opacity="null" stroke-width="1.5" fill="#fff"/>
  <path stroke="#ffffff" id="svg_7" d="m13.15249,307.27179l0,0c0,-8.56037 6.93959,-15.49996 15.49999,-15.49996l0,0c4.11091,0 8.05343,1.63303 10.96016,4.53985c2.90684,2.90682 4.53986,6.84932 4.53986,10.96011l0,0c0,8.56048 -6.93955,15.50002 -15.50002,15.50002l0,0c-8.56039,0 -15.49999,-6.93954 -15.49999,-15.50002l0,0zm25.02898,6.93391l0,0c3.41258,-4.68993 2.90531,-11.16565 -1.19597,-15.26687c-4.10128,-4.10126 -10.577,-4.60853 -15.26682,-1.19591l16.46279,16.46278zm-19.05789,-13.86768c-3.41261,4.68991 -2.90535,11.16563 1.19591,15.2668c4.10124,4.10128 10.57697,4.60855 15.26678,1.19596l-16.46269,-16.46276l0,0z" fill-opacity="null" stroke-opacity="null" stroke-width="1.5" fill="#fff"/>
 </g>
</svg>