<svg width="238" height="332" xmlns="http://www.w3.org/2000/svg">
 <!-- Created with Method Draw - http://github.com/duopixel/Method-Draw/ -->

 <g>
  <title>background</title>
  <rect fill="#fff" id="canvas_background" height="334" width="240" y="-1" x="-1"/>
  <g display="none" id="canvasGrid">
   <rect fill="url(#gridpattern)" stroke-width="0" y="0" x="0" height="100%" width="100%" id="svg_3"/>
  </g>
 </g>
 <g>
  <title>Layer 1</title>
  <rect stroke="#ebce2c" rx="17" id="svg_1" height="317.99999" width="222" y="7" x="8" stroke-width="15" fill="#ebce2c"/>
  <ellipse stroke="#ffffff" ry="103" rx="78.5" id="svg_12" cy="166" cx="119" stroke-width="5" fill="#ceb329"/>
  <rect id="svg_2" height="137" width="267" y="-51.21875" x="-294.16498" stroke-opacity="null" stroke-width="20" stroke="#000" fill="#ffffff"/>
  <text xml:space="preserve" text-anchor="start" font-family="Arvo, sans-serif" font-size="39" id="svg_9" y="200.78125" x="-33.16498" stroke-width="0" stroke="#02a962" fill="#ffffff">6</text>
  <rect id="svg_28" height="69" width="81" y="-94.21875" x="-316.16498" fill-opacity="null" stroke-opacity="null" stroke-width="5" stroke="#a81f2d" fill="#ffffff"/>
  <rect id="svg_29" height="70" width="89" y="47.78125" x="-197.16498" fill-opacity="null" stroke-opacity="null" stroke-width="5" stroke="#a81f2d" fill="#ffffff"/>
  <path id="svg_4" d="m58.49996,165.9999l0,0c0,-33.41307 27.08682,-60.49989 60.49998,-60.49989l0,0c16.04582,0 31.43439,6.3741 42.78,17.72007c11.34606,11.34597 17.7201,26.73445 17.7201,42.77981l0,0c0,33.41348 -27.08663,60.50011 -60.5001,60.50011l0,0c-33.41316,0 -60.49998,-27.08663 -60.49998,-60.50011l0,0l0,0.00001zm97.69379,27.06464l0,0c13.32011,-18.30587 11.3401,-43.58208 -4.66813,-59.5901c-16.00824,-16.00814 -41.28445,-17.98815 -59.58986,-4.6679l64.25799,64.258zm-74.38727,-54.12872c-13.3202,18.30578 -11.34024,43.58199 4.6679,59.58977c16.0081,16.00824 41.28432,17.98823 59.58973,4.66813l-64.25763,-64.2579l0,0z" fill-opacity="null" stroke-width="0" stroke="#000000" fill="#fff"/>
  <path stroke="#000000" id="svg_5" d="m193.31249,31.30183l0,0c0,-9.11267 7.38733,-16.5 16.50002,-16.5l0,0c4.37614,0 8.57303,1.73839 11.66729,4.83276c3.09439,3.09436 4.83276,7.29123 4.83276,11.66724l0,0c0,9.11278 -7.38727,16.50006 -16.50005,16.50006l0,0c-9.1127,0 -16.50002,-7.38728 -16.50002,-16.50006l0,0zm26.64381,7.38128l0,0c3.63276,-4.99252 3.09276,-11.88604 -1.27313,-16.25187c-4.36589,-4.36587 -11.25942,-4.90587 -16.25181,-1.27307l17.52494,17.52494zm-20.28747,-14.7624c-3.63279,4.99249 -3.0928,11.88602 1.27307,16.25178c4.36585,4.36589 11.25938,4.90589 16.25177,1.27313l-17.52484,-17.52492l0,0l0,0.00001z" fill-opacity="null" stroke-width="0" fill="#fff"/>
  <path stroke="#000000" id="svg_6" d="m14.31249,302.30183l0,0c0,-9.11267 7.38733,-16.5 16.50003,-16.5l0,0c4.37614,0 8.57303,1.73839 11.66729,4.83276c3.09438,3.09436 4.83276,7.29122 4.83276,11.66724l0,0c0,9.11278 -7.38727,16.50006 -16.50005,16.50006l0,0c-9.1127,0 -16.50003,-7.38728 -16.50003,-16.50006l0,0zm26.64381,7.38128l0,0c3.63277,-4.99252 3.09276,-11.88605 -1.27313,-16.25188c-4.36589,-4.36586 -11.25941,-4.90587 -16.2518,-1.27306l17.52493,17.52494zm-20.28747,-14.76241c-3.63279,4.9925 -3.0928,11.88602 1.27307,16.25179c4.36585,4.36589 11.25938,4.90589 16.25177,1.27313l-17.52484,-17.52492l0,0z" fill-opacity="null" stroke-width="0" fill="#fff"/>
 </g>
</svg>